<svg width="603" height="200" viewBox="0 0 603 200" fill="none" xmlns="http://www.w3.org/2000/svg">
<path d="M100.046 99.689L143.568 56.035L187.09 99.689L143.568 143.343L100.046 99.689Z" fill="#09A6FF"/>
<path d="M13 99.652L56.5609 55.959L100.122 99.652L56.5609 143.345L13 99.652Z" fill="#6E8BF1"/>
<path d="M56.5605 143.307L100.121 99.615L143.682 143.307L100.121 187L56.5605 143.307Z" fill="#3B41EC"/>
<path d="M56.5229 55.998L100.084 12.305L143.645 55.998L100.084 99.691L56.5229 55.998Z" fill="#47D2B3"/>
<path d="M238.706 74.824L240.296 62.104H254.182L252.592 74.824H238.706ZM243.582 141.816H231.392L238.706 82.774H250.896L243.582 141.816ZM367.225 82.35C374.504 82.35 379.981 84.0813 383.655 87.544C387.401 90.936 389.273 95.9887 389.273 102.702C389.273 104.257 389.167 105.953 388.955 107.79L387.789 117.33H348.251V117.436C348.11 118.991 348.039 120.051 348.039 120.616C348.039 124.22 349.064 126.905 351.113 128.672C353.233 130.368 356.767 131.216 361.713 131.216H366.907C370.582 131.216 376.165 130.898 383.655 130.262L382.489 141.286C376.271 141.922 370.688 142.24 365.741 142.24H360.547C351.997 142.24 345.707 140.509 341.679 137.046C337.722 133.583 335.743 128.495 335.743 121.782C335.743 120.157 335.849 118.496 336.061 116.8L337.121 107.896C338.111 99.416 340.902 93.056 345.495 88.816C350.089 84.5053 356.625 82.35 365.105 82.35H367.225ZM376.871 107.048V106.942C377.013 105.387 377.083 104.257 377.083 103.55C377.083 100.158 376.165 97.5787 374.327 95.812C372.561 94.0453 369.734 93.162 365.847 93.162H363.727C355.389 93.162 350.654 97.7907 349.523 107.048H376.871ZM409.35 142.24C402.849 142.099 397.231 141.816 392.496 141.392L394.086 129.944C401.012 130.58 406.559 130.969 410.728 131.11H414.332C418.855 131.11 422 130.545 423.766 129.414C425.604 128.283 426.734 126.658 427.158 124.538C427.229 124.185 427.264 123.69 427.264 123.054C427.264 121.287 426.982 120.121 426.416 119.556C425.922 118.779 425.109 118.249 423.978 117.966C422.848 117.683 420.692 117.365 417.512 117.012L415.074 116.694C411.4 116.411 407.902 115.775 404.58 114.786C401.966 113.797 400.022 112.383 398.75 110.546C397.478 108.638 396.842 106.129 396.842 103.02C396.842 102.384 396.913 101.289 397.054 99.734C397.549 95.4233 398.786 92.0667 400.764 89.664C402.743 87.1907 405.499 85.424 409.032 84.364C412.566 83.304 417.124 82.774 422.706 82.774H427.052L441.998 82.88L440.62 94.116H421.328C418.219 94.116 415.852 94.2927 414.226 94.646C412.601 94.9287 411.4 95.4587 410.622 96.236C409.916 96.9427 409.456 98.0027 409.244 99.416C409.174 99.7693 409.138 100.229 409.138 100.794C409.138 101.925 409.456 102.879 410.092 103.656C410.799 104.504 411.824 105.105 413.166 105.458C414.58 105.741 417.159 106.094 420.904 106.518C425.356 106.942 428.996 107.613 431.822 108.532C434.296 109.38 436.168 110.829 437.44 112.878C438.783 114.927 439.454 117.577 439.454 120.828C439.454 122.383 439.384 123.584 439.242 124.432C438.394 131.004 435.921 135.597 431.822 138.212C427.724 140.897 421.434 142.24 412.954 142.24H409.35ZM455.364 74.824L456.954 62.104H470.84L469.25 74.824H455.364ZM460.24 141.816H448.05L455.364 82.774H467.554L460.24 141.816ZM476.244 108.32C478.081 91.2893 487.48 82.774 504.44 82.774H529.774L522.036 145.95C521.258 151.674 518.891 156.197 514.934 159.518C511.047 162.839 505.146 164.5 497.232 164.5C490.236 164.5 483.628 164.217 477.41 163.652L478.682 152.628C485.466 153.264 491.896 153.582 497.974 153.582C501.86 153.582 504.722 152.946 506.56 151.674C508.397 150.402 509.492 148.388 509.846 145.632L510.27 141.816H497.02C482.392 141.816 475.078 134.997 475.078 121.358C475.078 119.803 475.184 118.143 475.396 116.376L476.244 108.32ZM511.648 130.686L516.206 93.904H503.062C494.37 93.904 489.529 98.6033 488.54 108.002L487.586 116.694C487.444 118.107 487.374 119.061 487.374 119.556C487.374 126.976 491.048 130.686 498.398 130.686H511.648ZM553.738 94.116L548.014 141.816H535.824L543.032 82.774H569.638C584.266 82.774 591.58 89.4873 591.58 102.914C591.58 104.539 591.474 106.306 591.262 108.214L587.128 141.816H574.938L579.072 107.896C579.213 106.483 579.284 105.493 579.284 104.928C579.284 97.72 575.609 94.116 568.26 94.116H553.738Z" fill="black"/>
<path d="M301.244 62.21C310.572 62.2807 317.426 64.33 321.808 68.358C326.189 72.3153 328.38 78.5693 328.38 87.12C328.38 89.3107 328.203 91.996 327.85 95.176L326.26 108.85C324.705 120.369 321.172 128.743 315.66 133.972C310.148 139.131 302.056 141.745 291.386 141.816H258.632L268.384 62.21H301.244ZM292.976 130.156C299.406 130.156 304.212 128.531 307.392 125.28C310.572 122.029 312.621 116.765 313.54 109.486L315.448 94.54C315.73 91.7133 315.872 89.7347 315.872 88.604C315.872 83.4453 314.635 79.7 312.162 77.368C309.759 75.036 305.766 73.87 300.184 73.87H279.514L272.518 130.156H292.976Z" fill="#1BC47D"/>
</svg>
