<svg width="75" height="78" viewBox="0 0 75 78" fill="none" xmlns="http://www.w3.org/2000/svg">
<path fill-rule="evenodd" clip-rule="evenodd" d="M15.5 10.9999H39.2584C40.3609 10.9999 41.4145 11.455 42.1703 12.2576L46.412 16.7616C47.1108 17.5037 47.5 18.4846 47.5 19.504V48.9999C47.5 51.2091 45.7091 52.9999 43.5 52.9999H15.5C13.2909 52.9999 11.5 51.2091 11.5 48.9999V14.9999C11.5 12.7908 13.2909 10.9999 15.5 10.9999Z" fill="#3B41EC"/>
<path d="M68.5 20H30.5C27.1863 20 24.5 22.6863 24.5 26V60C24.5 63.3137 27.1863 66 30.5 66H68.5C71.8137 66 74.5 63.3137 74.5 60V26C74.5 22.6863 71.8137 20 68.5 20Z" fill="#BED8FE"/>
<path d="M68.5 20H30.5C27.1863 20 24.5 22.6863 24.5 26V60C24.5 63.3137 27.1863 66 30.5 66H68.5C71.8137 66 74.5 63.3137 74.5 60V26C74.5 22.6863 71.8137 20 68.5 20Z" fill="url(#paint0_linear_10_455)"/>
<g filter="url(#filter0_f_10_455)">
<path fill-rule="evenodd" clip-rule="evenodd" d="M47.5 24.7161V49.7161C47.5 51.9252 45.7091 53.7161 43.5 53.7161L24.5831 53.7169C24.5284 53.3914 24.5 53.0571 24.5 52.7161V30.7161C24.5 27.4024 27.1863 24.7161 30.5 24.7161H47.5Z" fill="url(#paint1_linear_10_455)"/>
</g>
<g filter="url(#filter1_d_10_455)">
<path d="M50.8331 39.893C51.6141 40.6741 51.6141 41.9404 50.8331 42.7214L42.197 51.3575C41.4159 52.1386 40.1496 52.1386 39.3685 51.3575L39.3156 51.3046C38.5345 50.5235 38.5345 49.2572 39.3156 48.4761L46.4844 41.3068L39.3156 34.1383C38.5345 33.3573 38.5345 32.091 39.3156 31.3099L39.3685 31.2569C40.1496 30.4759 41.4159 30.4759 42.197 31.2569L50.8331 39.893ZM64.8159 48.2917V48.3667C64.8159 49.4712 63.9205 50.3667 62.8159 50.3667L54.9741 50.3667C53.8695 50.3667 52.9741 49.4712 52.9741 48.3667V48.2917C52.9741 47.1872 53.8695 46.2917 54.9741 46.2917L62.8159 46.2917C63.9205 46.2917 64.8159 47.1872 64.8159 48.2917Z" fill="black"/>
</g>
<path d="M50.8331 39.893C51.6141 40.6741 51.6141 41.9404 50.8331 42.7214L42.197 51.3575C41.4159 52.1386 40.1496 52.1386 39.3685 51.3575L39.3156 51.3046C38.5345 50.5235 38.5345 49.2572 39.3156 48.4761L46.4844 41.3068L39.3156 34.1383C38.5345 33.3573 38.5345 32.091 39.3156 31.3099L39.3685 31.2569C40.1496 30.4759 41.4159 30.4759 42.197 31.2569L50.8331 39.893ZM64.8159 48.2917V48.3667C64.8159 49.4712 63.9205 50.3667 62.8159 50.3667L54.9741 50.3667C53.8695 50.3667 52.9741 49.4712 52.9741 48.3667V48.2917C52.9741 47.1872 53.8695 46.2917 54.9741 46.2917L62.8159 46.2917C63.9205 46.2917 64.8159 47.1872 64.8159 48.2917Z" fill="white"/>
<defs>
<filter id="filter0_f_10_455" x="8.5" y="8.71609" width="55" height="61.0008" filterUnits="userSpaceOnUse" color-interpolation-filters="sRGB">
<feFlood flood-opacity="0" result="BackgroundImageFix"/>
<feBlend mode="normal" in="SourceGraphic" in2="BackgroundImageFix" result="shape"/>
<feGaussianBlur stdDeviation="8" result="effect1_foregroundBlur_10_455"/>
</filter>
<filter id="filter1_d_10_455" x="34.7298" y="28.6711" width="34.0861" height="29.2722" filterUnits="userSpaceOnUse" color-interpolation-filters="sRGB">
<feFlood flood-opacity="0" result="BackgroundImageFix"/>
<feColorMatrix in="SourceAlpha" type="matrix" values="0 0 0 0 0 0 0 0 0 0 0 0 0 0 0 0 0 0 127 0" result="hardAlpha"/>
<feOffset dy="2"/>
<feGaussianBlur stdDeviation="2"/>
<feColorMatrix type="matrix" values="0 0 0 0 0.400629 0 0 0 0 0.722619 0 0 0 0 0.78469 0 0 0 0.3 0"/>
<feBlend mode="normal" in2="BackgroundImageFix" result="effect1_dropShadow_10_455"/>
<feBlend mode="normal" in="SourceGraphic" in2="effect1_dropShadow_10_455" result="shape"/>
</filter>
<linearGradient id="paint0_linear_10_455" x1="64.1774" y1="55.254" x2="42.7856" y2="38.3748" gradientUnits="userSpaceOnUse">
<stop stop-color="#FAFCFF" stop-opacity="0.8"/>
<stop offset="1" stop-color="#F1F6FF"/>
</linearGradient>
<linearGradient id="paint1_linear_10_455" x1="34.2672" y1="30.5625" x2="42.2409" y2="50.316" gradientUnits="userSpaceOnUse">
<stop stop-color="#55F1FE"/>
<stop offset="1" stop-color="#3A3CF5"/>
</linearGradient>
</defs>
</svg>
