<svg width="74" height="84" viewBox="0 0 74 84" fill="none" xmlns="http://www.w3.org/2000/svg">
<path fill-rule="evenodd" clip-rule="evenodd" d="M29.7672 15.7093L49.0514 51.311C50.1036 53.2535 49.3818 55.6811 47.4394 56.7333C46.8544 57.0502 46.1995 57.2161 45.5342 57.2161H6.96579C4.75665 57.2161 2.96579 55.4252 2.96579 53.2161C2.96579 52.5508 3.13174 51.896 3.44862 51.311L22.7328 15.7093C23.785 13.7669 26.2127 13.0451 28.1551 14.0973C28.8375 14.4669 29.3976 15.027 29.7672 15.7093Z" fill="#3B41EC"/>
<path fill-rule="evenodd" clip-rule="evenodd" d="M31.535 25.2161H53.535C64.5807 25.2161 73.535 34.1704 73.535 45.2161V53.2161C73.535 64.2618 64.5807 73.2161 53.535 73.2161H31.535C28.2213 73.2161 25.535 70.5298 25.535 67.2161V31.2161C25.535 27.9024 28.2213 25.2161 31.535 25.2161Z" fill="#BED8FE"/>
<path fill-rule="evenodd" clip-rule="evenodd" d="M31.75 25.2161H53.75C64.7957 25.2161 73.75 34.1704 73.75 45.2161V53.2161C73.75 64.2618 64.7957 73.2161 53.75 73.2161H31.75C28.4363 73.2161 25.75 70.5298 25.75 67.2161V31.2161C25.75 27.9024 28.4363 25.2161 31.75 25.2161Z" fill="url(#paint0_linear_9_427)"/>
<g filter="url(#filter0_f_9_427)">
<path fill-rule="evenodd" clip-rule="evenodd" d="M33.2908 24.2157L49.0514 53.311C50.1036 55.2534 49.3818 57.6811 47.4394 58.7333C46.8543 59.0501 46.1995 59.2161 45.5342 59.2161L24.7498 59.2157L24.75 32.2161C24.75 27.7978 28.3317 24.2161 32.75 24.2161L33.2908 24.2157Z" fill="url(#paint1_linear_9_427)"/>
</g>
<g filter="url(#filter1_d_9_427)">
<path d="M49.75 56.2161C53.616 56.2161 56.75 53.0821 56.75 49.2161C56.75 45.3501 53.616 42.2161 49.75 42.2161C45.884 42.2161 42.75 45.3501 42.75 49.2161C42.75 53.0821 45.884 56.2161 49.75 56.2161Z" fill="black"/>
</g>
<path d="M49.75 56.2161C53.616 56.2161 56.75 53.0821 56.75 49.2161C56.75 45.3501 53.616 42.2161 49.75 42.2161C45.884 42.2161 42.75 45.3501 42.75 49.2161C42.75 53.0821 45.884 56.2161 49.75 56.2161Z" fill="white"/>
<defs>
<filter id="filter0_f_9_427" x="8.74979" y="8.2157" width="56.7852" height="67.0004" filterUnits="userSpaceOnUse" color-interpolation-filters="sRGB">
<feFlood flood-opacity="0" result="BackgroundImageFix"/>
<feBlend mode="normal" in="SourceGraphic" in2="BackgroundImageFix" result="shape"/>
<feGaussianBlur stdDeviation="8" result="effect1_foregroundBlur_9_427"/>
</filter>
<filter id="filter1_d_9_427" x="38.75" y="40.2161" width="22" height="22" filterUnits="userSpaceOnUse" color-interpolation-filters="sRGB">
<feFlood flood-opacity="0" result="BackgroundImageFix"/>
<feColorMatrix in="SourceAlpha" type="matrix" values="0 0 0 0 0 0 0 0 0 0 0 0 0 0 0 0 0 0 127 0" result="hardAlpha"/>
<feOffset dy="2"/>
<feGaussianBlur stdDeviation="2"/>
<feColorMatrix type="matrix" values="0 0 0 0 0.400629 0 0 0 0 0.722619 0 0 0 0 0.78469 0 0 0 0.3 0"/>
<feBlend mode="normal" in2="BackgroundImageFix" result="effect1_dropShadow_9_427"/>
<feBlend mode="normal" in="SourceGraphic" in2="effect1_dropShadow_9_427" result="shape"/>
</filter>
<linearGradient id="paint0_linear_9_427" x1="63.8403" y1="64.3234" x2="42.018" y2="45.6072" gradientUnits="userSpaceOnUse">
<stop stop-color="#FAFCFF" stop-opacity="0.8"/>
<stop offset="1" stop-color="#F1F6FF"/>
</linearGradient>
<linearGradient id="paint1_linear_9_427" x1="35.6536" y1="31.2715" x2="44.1979" y2="54.9776" gradientUnits="userSpaceOnUse">
<stop stop-color="#55F1FE"/>
<stop offset="1" stop-color="#3A3CF5"/>
</linearGradient>
</defs>
</svg>
