<svg width="71" height="76" viewBox="0 0 71 76" fill="none" xmlns="http://www.w3.org/2000/svg">
<path fill-rule="evenodd" clip-rule="evenodd" d="M26.9837 49.4946L13.6662 56.496C13.1774 56.753 12.5727 56.5651 12.3157 56.0762C12.2134 55.8816 12.1781 55.6586 12.2153 55.4418L14.7587 40.6126C14.8143 40.2882 14.7068 39.9572 14.4711 39.7275L3.69701 29.2253C3.30152 28.8398 3.29343 28.2067 3.67893 27.8112C3.83244 27.6537 4.03358 27.5513 4.25122 27.5196L19.1406 25.3561C19.4663 25.3087 19.7479 25.1042 19.8936 24.809L26.5523 11.3169C26.7967 10.8217 27.3964 10.6183 27.8916 10.8628C28.0888 10.9601 28.2485 11.1197 28.3458 11.3169L35.0045 24.809C35.1502 25.1042 35.4318 25.3087 35.7575 25.3561L50.6469 27.5196C51.1934 27.599 51.5721 28.1065 51.4927 28.653C51.4611 28.8707 51.3586 29.0718 51.2011 29.2253L40.427 39.7275C40.1913 39.9572 40.0838 40.2882 40.1394 40.6126L42.6828 55.4418C42.7762 55.9862 42.4106 56.5031 41.8663 56.5965C41.6495 56.6337 41.4266 56.5984 41.2319 56.496L27.9144 49.4946C27.6231 49.3414 27.275 49.3414 26.9837 49.4946Z" fill="#3B41EC"/>
<path d="M53.4491 23H33.4491C30.1353 23 27.4491 25.6862 27.4491 29V56.5C27.4491 59.8137 30.1353 62.5 33.4491 62.5H53.4491C56.7628 62.5 59.4491 59.8137 59.4491 56.5V29C59.4491 25.6862 56.7628 23 53.4491 23Z" fill="url(#paint0_linear_10_441)"/>
<path d="M53.4491 23H33.4491C30.1353 23 27.4491 25.6862 27.4491 29V56.5C27.4491 59.8137 30.1353 62.5 33.4491 62.5H53.4491C56.7628 62.5 59.4491 59.8137 59.4491 56.5V29C59.4491 25.6862 56.7628 23 53.4491 23Z" fill="url(#paint1_linear_10_441)"/>
<g filter="url(#filter0_f_10_441)">
<path fill-rule="evenodd" clip-rule="evenodd" d="M33.2368 24.9722L33.888 26.2907C34.0336 26.5859 34.3152 26.7905 34.6409 26.8378L46.0513 28.4958C46.5979 28.5752 46.9765 29.0827 46.8971 29.6292C46.8655 29.8469 46.763 30.048 46.6055 30.2015L38.3489 38.2498C38.1132 38.4795 38.0056 38.8105 38.0613 39.1349L40.0104 50.4992C40.1038 51.0435 39.7382 51.5605 39.1938 51.6539C38.9771 51.691 38.7541 51.6557 38.5595 51.5534L28.3537 46.1879C28.208 46.1113 28.0482 46.073 27.8883 46.073V30.9373C27.8883 27.8437 30.2296 25.2969 33.2368 24.9722Z" fill="url(#paint2_linear_10_441)"/>
</g>
<path d="M51.483 42.395V42.3201C51.483 41.2155 50.5875 40.3201 49.483 40.3201H38.0225C36.9179 40.3201 36.0225 41.2155 36.0225 42.3201V42.395C36.0225 43.4996 36.9179 44.395 38.0225 44.395H49.483C50.5875 44.395 51.483 43.4996 51.483 42.395Z" fill="white"/>
<path d="M48.2934 33.9999V33.925C48.2934 32.8204 47.398 31.925 46.2934 31.925L38.0225 31.925C36.9179 31.925 36.0225 32.8204 36.0225 33.925V33.9999C36.0225 35.1045 36.9179 35.9999 38.0225 35.9999H46.2934C47.398 35.9999 48.2934 35.1045 48.2934 33.9999Z" fill="white"/>
<path d="M47.7464 50.7901V50.7151C47.7464 49.6106 46.851 48.7151 45.7464 48.7151H38.0225C36.9179 48.7151 36.0225 49.6106 36.0225 50.7151V50.7901C36.0225 51.8946 36.9179 52.7901 38.0225 52.7901H45.7464C46.851 52.7901 47.7464 51.8946 47.7464 50.7901Z" fill="white"/>
<defs>
<filter id="filter0_f_10_441" x="11.8883" y="8.97221" width="51.0193" height="58.696" filterUnits="userSpaceOnUse" color-interpolation-filters="sRGB">
<feFlood flood-opacity="0" result="BackgroundImageFix"/>
<feBlend mode="normal" in="SourceGraphic" in2="BackgroundImageFix" result="shape"/>
<feGaussianBlur stdDeviation="8" result="effect1_foregroundBlur_10_441"/>
</filter>
<linearGradient id="paint0_linear_10_441" x1="49.6141" y1="55.182" x2="37.4235" y2="42.2761" gradientUnits="userSpaceOnUse">
<stop stop-color="#FAFCFF" stop-opacity="0.8"/>
<stop offset="1" stop-color="#F1F6FF"/>
</linearGradient>
<linearGradient id="paint1_linear_10_441" x1="49.6141" y1="55.182" x2="37.4235" y2="42.2761" gradientUnits="userSpaceOnUse">
<stop stop-color="#FAFCFF" stop-opacity="0.8"/>
<stop offset="1" stop-color="#F1F6FF"/>
</linearGradient>
<linearGradient id="paint2_linear_10_441" x1="36.2417" y1="30.354" x2="42.7988" y2="48.4372" gradientUnits="userSpaceOnUse">
<stop stop-color="#55F1FE"/>
<stop offset="1" stop-color="#3A3CF5"/>
</linearGradient>
</defs>
</svg>
